<?xml version="1.0" encoding="utf-8"?>
<!-- Generator: Adobe Illustrator 27.5.0, SVG Export Plug-In . SVG Version: 6.00 Build 0)  -->
<svg version="1.1" xmlns="http://www.w3.org/2000/svg" xmlns:xlink="http://www.w3.org/1999/xlink" x="0px" y="0px"
	 viewBox="0 0 213.25 222.5" style="enable-background:new 0 0 213.25 222.5;" xml:space="preserve">
<style type="text/css">
	.st0{fill:#3FA9F5;}
	.st1{fill:#FFFFFF;}
</style>
<g id="Sfondo">
</g>
<g id="Livello_1">
	<circle cx="106.62" cy="111.25" r="106.5"/>
	<g>
		<g>
			<path class="st0" d="M65.27,48.3c0,8.78,0,17.56,0,26.33c0,13.94,0,27.87,0,41.81c0,3.2,0,6.39,0,9.59
				c0,3.79,3.33,7.42,7.24,7.24c3.92-0.18,7.24-3.18,7.24-7.24c0-8.78,0-17.56,0-26.33c0-13.94,0-27.87,0-41.81c0-3.2,0-6.39,0-9.59
				c0-3.79-3.33-7.42-7.24-7.24C68.59,41.23,65.27,44.24,65.27,48.3L65.27,48.3z"/>
		</g>
	</g>
	<g>
		<g>
			<path class="st0" d="M134.79,51.68c0,8.42,0,16.84,0,25.26c0,13.31,0,26.62,0,39.93c0,3.05,0,6.1,0,9.15
				c0,3.79,3.33,7.42,7.24,7.24c3.92-0.18,7.24-3.18,7.24-7.24c0-8.42,0-16.84,0-25.26c0-13.31,0-26.62,0-39.93c0-3.05,0-6.1,0-9.15
				c0-3.79-3.33-7.42-7.24-7.24C138.11,44.61,134.79,47.62,134.79,51.68L134.79,51.68z"/>
		</g>
	</g>
	<g>
		<g>
			<path class="st1" d="M100.03,89.34c0,3.72,0,7.44,0,11.16c0,8.93,0,17.86,0,26.79c0,10.76,0,21.51,0,32.27
				c0,9.34,0,18.67,0,28.01c0,4.53-0.09,9.07,0,13.6c0,0.06,0,0.12,0,0.19c0,3.79,3.33,7.42,7.24,7.24
				c3.92-0.18,7.24-3.18,7.24-7.24c0-3.72,0-7.44,0-11.16c0-8.93,0-17.86,0-26.79c0-10.76,0-21.51,0-32.27c0-9.34,0-18.67,0-28.01
				c0-4.53,0.09-9.07,0-13.6c0-0.06,0-0.12,0-0.19c0-3.79-3.33-7.42-7.24-7.24C103.35,82.27,100.03,85.28,100.03,89.34L100.03,89.34
				z"/>
		</g>
	</g>
	<g>
		<g>
			<path class="st1" d="M189.28,101.78c-3.02,3-6.05,6-9.07,9.01c-7.26,7.21-14.51,14.41-21.77,21.62
				c-8.75,8.68-17.49,17.37-26.24,26.05c-7.56,7.51-15.12,15.02-22.68,22.52c-3.69,3.66-7.43,7.28-11.07,10.99
				c-0.05,0.05-0.1,0.1-0.16,0.15c-5,4.96-4.97,13.46,0,18.43c0.08,0.08,0.16,0.16,0.24,0.24c2.36,2.36,5.88,3.82,9.22,3.82
				c3.2,0,7.02-1.42,9.22-3.82c2.28-2.48,3.97-5.75,3.82-9.22c-0.16-3.46-1.33-6.72-3.82-9.22c-3.04-3.06-6.09-6.11-9.13-9.17
				c-7.25-7.27-14.49-14.55-21.74-21.82c-8.79-8.82-17.58-17.64-26.37-26.46c-7.6-7.62-15.2-15.25-22.79-22.87
				c-3.69-3.7-7.33-7.45-11.06-11.1c-0.05-0.05-0.11-0.11-0.16-0.16c-2.36-2.37-5.88-3.82-9.22-3.82c-3.2,0-7.02,1.42-9.22,3.82
				C5,103.27,3.31,106.53,3.46,110c0.16,3.46,1.33,6.72,3.82,9.22c3.04,3.06,6.09,6.11,9.13,9.17c7.25,7.27,14.49,14.55,21.74,21.82
				c8.79,8.82,17.58,17.64,26.37,26.46c7.6,7.62,15.2,15.25,22.79,22.87c3.68,3.7,7.32,7.46,11.06,11.1
				c0.05,0.05,0.11,0.11,0.16,0.16c6.14-6.14,12.29-12.29,18.43-18.43c-0.08-0.08-0.16-0.16-0.24-0.24c0,6.14,0,12.29,0,18.43
				c3.02-3,6.05-6,9.07-9.01c7.26-7.21,14.51-14.41,21.77-21.62c8.75-8.68,17.49-17.37,26.24-26.05
				c7.56-7.51,15.12-15.02,22.68-22.52c3.69-3.66,7.43-7.28,11.07-10.99c0.05-0.05,0.1-0.1,0.16-0.15c2.37-2.35,3.82-5.89,3.82-9.22
				c0-3.2-1.42-7.02-3.82-9.22c-2.48-2.28-5.75-3.97-9.22-3.82C195.04,98.12,191.79,99.29,189.28,101.78L189.28,101.78z"/>
		</g>
	</g>
	<g>
		<g>
			<path class="st0" d="M207.72,101.78c-3.03-3.03-6.05-6.05-9.08-9.08c-7.24-7.23-14.47-14.47-21.71-21.7
				c-8.75-8.75-17.5-17.49-26.25-26.24c-7.59-7.59-15.18-15.17-22.77-22.76c-3.67-3.67-7.29-7.4-11.02-11.01
				c-0.05-0.05-0.1-0.1-0.15-0.15c0,6.14,0,12.29,0,18.43c0.08-0.08,0.16-0.16,0.24-0.24c2.36-2.36,3.82-5.88,3.82-9.22
				c0-3.2-1.42-7.02-3.82-9.22c-2.48-2.28-5.75-3.97-9.22-3.82c-3.47,0.16-6.7,1.33-9.22,3.82c-3.03,3-6.06,5.99-9.1,8.99
				c-7.28,7.19-14.56,14.39-21.84,21.58c-8.77,8.67-17.54,17.34-26.31,26.01c-7.58,7.49-15.17,14.99-22.75,22.48
				c-3.7,3.66-7.45,7.27-11.1,10.97c-0.05,0.05-0.1,0.1-0.16,0.15c-2.37,2.34-3.82,5.9-3.82,9.22c0,3.2,1.42,7.02,3.82,9.22
				c2.48,2.28,5.75,3.97,9.22,3.82c3.47-0.16,6.7-1.33,9.22-3.82c3.03-3,6.06-5.99,9.1-8.99c7.28-7.19,14.56-14.39,21.84-21.58
				c8.77-8.67,17.54-17.34,26.31-26.01c7.58-7.49,15.17-14.99,22.75-22.48c3.7-3.66,7.46-7.26,11.1-10.97
				c0.05-0.05,0.1-0.1,0.16-0.15c-6.14-6.14-12.29-12.29-18.43-18.43c-0.08,0.08-0.16,0.16-0.24,0.24c-4.98,4.98-4.99,13.45,0,18.43
				c3.03,3.03,6.05,6.05,9.08,9.08c7.24,7.23,14.47,14.47,21.71,21.7c8.75,8.75,17.5,17.49,26.25,26.24
				c7.59,7.59,15.18,15.17,22.77,22.76c3.67,3.67,7.3,7.39,11.02,11.01c0.05,0.05,0.1,0.1,0.15,0.15c2.36,2.36,5.87,3.82,9.22,3.82
				c3.2,0,7.02-1.42,9.22-3.82c2.28-2.48,3.97-5.75,3.82-9.22C211.38,107.54,210.21,104.28,207.72,101.78L207.72,101.78z"/>
		</g>
	</g>
</g>
</svg>
