<?xml version="1.0" encoding="utf-8"?>
<!-- Generator: Adobe Illustrator 27.5.0, SVG Export Plug-In . SVG Version: 6.00 Build 0)  -->
<svg version="1.1" xmlns="http://www.w3.org/2000/svg" xmlns:xlink="http://www.w3.org/1999/xlink" x="0px" y="0px"
	 viewBox="0 0 213.25 129.25" style="enable-background:new 0 0 213.25 129.25;" xml:space="preserve">
<style type="text/css">
	.st0{fill:#3FA9F5;}
</style>
<g id="Sfondo">
</g>
<g id="Livello_1">
	<g>
		<g>
			<path class="st0" d="M189.28,8.53c-3.02,3-6.05,6-9.07,9.01c-7.26,7.21-14.51,14.41-21.77,21.62
				c-8.75,8.68-17.49,17.37-26.24,26.05c-7.56,7.51-15.12,15.02-22.68,22.52c-3.69,3.66-7.43,7.28-11.07,10.99
				c-0.05,0.05-0.1,0.1-0.16,0.15c-5,4.96-4.97,13.46,0,18.43c0.08,0.08,0.16,0.16,0.24,0.24c2.36,2.36,5.88,3.82,9.22,3.82
				c3.2,0,7.02-1.42,9.22-3.82c2.28-2.48,3.97-5.75,3.82-9.22c-0.16-3.46-1.33-6.72-3.82-9.22c-3.04-3.06-6.09-6.11-9.13-9.17
				c-7.25-7.27-14.49-14.55-21.74-21.82c-8.79-8.82-17.58-17.64-26.37-26.46c-7.6-7.62-15.2-15.25-22.79-22.87
				c-3.69-3.7-7.33-7.45-11.06-11.1c-0.05-0.05-0.11-0.11-0.16-0.16c-2.36-2.37-5.88-3.82-9.22-3.82c-3.2,0-7.02,1.42-9.22,3.82
				C5,10.02,3.31,13.28,3.46,16.75c0.16,3.46,1.33,6.72,3.82,9.22c3.04,3.06,6.09,6.11,9.13,9.17c7.25,7.27,14.49,14.55,21.74,21.82
				c8.79,8.82,17.58,17.64,26.37,26.46c7.6,7.62,15.2,15.25,22.79,22.87c3.68,3.7,7.32,7.46,11.06,11.1
				c0.05,0.05,0.11,0.11,0.16,0.16c6.14-6.14,12.29-12.29,18.43-18.43c-0.08-0.08-0.16-0.16-0.24-0.24c0,6.14,0,12.29,0,18.43
				c3.02-3,6.05-6,9.07-9.01c7.26-7.21,14.51-14.41,21.77-21.62c8.75-8.68,17.49-17.37,26.24-26.05
				c7.56-7.51,15.12-15.02,22.68-22.52c3.69-3.66,7.43-7.28,11.07-10.99c0.05-0.05,0.1-0.1,0.16-0.15c2.37-2.35,3.82-5.89,3.82-9.22
				c0-3.2-1.42-7.02-3.82-9.22c-2.48-2.28-5.75-3.97-9.22-3.82C195.04,4.87,191.79,6.04,189.28,8.53L189.28,8.53z"/>
		</g>
	</g>
</g>
</svg>
