<?xml version="1.0" encoding="utf-8"?>
<!-- Generator: Adobe Illustrator 27.5.0, SVG Export Plug-In . SVG Version: 6.00 Build 0)  -->
<svg version="1.1" xmlns="http://www.w3.org/2000/svg" xmlns:xlink="http://www.w3.org/1999/xlink" x="0px" y="0px"
	 viewBox="0 0 1022.5 313.5" style="enable-background:new 0 0 1022.5 313.5;" xml:space="preserve">
<style type="text/css">
	.st0{fill:#3FA9F5;}
	.st1{fill:#FFFFFF;}
</style>
<g id="Sfondo">
</g>
<g id="Livello_1">
	<g>
		<g>
			<g>
				<g>
					<path class="st0" d="M365.27,94.3c0,8.78,0,17.56,0,26.33c0,13.94,0,27.87,0,41.81c0,3.2,0,6.39,0,9.59
						c0,3.79,3.33,7.42,7.24,7.24c3.92-0.18,7.24-3.18,7.24-7.24c0-8.78,0-17.56,0-26.33c0-13.94,0-27.87,0-41.81
						c0-3.2,0-6.39,0-9.59c0-3.79-3.33-7.42-7.24-7.24C368.59,87.23,365.27,90.24,365.27,94.3L365.27,94.3z"/>
				</g>
			</g>
			<g>
				<g>
					<path class="st0" d="M434.79,97.68c0,8.42,0,16.84,0,25.26c0,13.31,0,26.62,0,39.93c0,3.05,0,6.1,0,9.15
						c0,3.79,3.33,7.42,7.24,7.24c3.92-0.18,7.24-3.18,7.24-7.24c0-8.42,0-16.84,0-25.26c0-13.31,0-26.62,0-39.93
						c0-3.05,0-6.1,0-9.15c0-3.79-3.33-7.42-7.24-7.24C438.11,90.61,434.79,93.62,434.79,97.68L434.79,97.68z"/>
				</g>
			</g>
			<g>
				<g>
					<path class="st0" d="M400.03,135.34c0,3.72,0,7.44,0,11.16c0,8.93,0,17.86,0,26.79c0,10.76,0,21.51,0,32.27
						c0,9.34,0,18.67,0,28.01c0,4.53-0.09,9.07,0,13.6c0,0.06,0,0.12,0,0.19c0,3.79,3.33,7.42,7.24,7.24
						c3.92-0.18,7.24-3.18,7.24-7.24c0-3.72,0-7.44,0-11.16c0-8.93,0-17.86,0-26.79c0-10.76,0-21.51,0-32.27c0-9.34,0-18.67,0-28.01
						c0-4.53,0.09-9.07,0-13.6c0-0.06,0-0.12,0-0.19c0-3.79-3.33-7.42-7.24-7.24C403.35,128.27,400.03,131.28,400.03,135.34
						L400.03,135.34z"/>
				</g>
			</g>
			<g>
				<g>
					<path class="st0" d="M615.84,135.34c0,8.94,0,17.88,0,26.82c0,14.22,0,28.45,0,42.67c0,3.23,0,6.46,0,9.69
						c0,3.79,3.33,7.42,7.24,7.24c3.92-0.18,7.24-3.18,7.24-7.24c0-8.94,0-17.88,0-26.82c0-14.22,0-28.45,0-42.67
						c0-3.23,0-6.46,0-9.69c0-3.79-3.33-7.42-7.24-7.24C619.16,128.27,615.84,131.28,615.84,135.34L615.84,135.34z"/>
				</g>
			</g>
			<g>
				<g>
					<path class="st0" d="M545.35,135.34c0,8.58,0,17.15,0,25.73c0,13.57,0,27.13,0,40.7c0,3.12,0,6.25,0,9.37
						c0,3.79,3.33,7.42,7.24,7.24c3.92-0.18,7.24-3.18,7.24-7.24c0-8.58,0-17.15,0-25.73c0-13.57,0-27.13,0-40.7
						c0-3.12,0-6.25,0-9.37c0-3.79-3.33-7.42-7.24-7.24C548.67,128.27,545.35,131.28,545.35,135.34L545.35,135.34z"/>
				</g>
			</g>
			<g>
				<g>
					<path class="st0" d="M582.05,65.33c0,3.53,0,7.06,0,10.59c0,8.48,0,16.96,0,25.44c0,10.31,0,20.61,0,30.92
						c0,8.87,0,17.75,0,26.62c0,4.31-0.09,8.64,0,12.95c0,0.06,0,0.12,0,0.18c0,3.79,3.33,7.42,7.24,7.24
						c3.92-0.18,7.24-3.18,7.24-7.24c0-3.53,0-7.06,0-10.59c0-8.48,0-16.96,0-25.44c0-10.31,0-20.61,0-30.92c0-8.87,0-17.75,0-26.62
						c0-4.31,0.09-8.64,0-12.95c0-0.06,0-0.12,0-0.18c0-3.79-3.33-7.42-7.24-7.24C585.36,58.27,582.05,61.27,582.05,65.33
						L582.05,65.33z"/>
				</g>
			</g>
			<g>
				<g>
					<path class="st0" d="M781.48,238.85c-6.09-6.09-12.18-12.18-18.27-18.27c-14.49-14.49-28.98-28.98-43.47-43.47
						c-17.65-17.65-35.3-35.3-52.95-52.95c-15.15-15.15-30.31-30.31-45.46-45.46c-7.42-7.42-14.69-15.03-22.28-22.28
						c-0.11-0.1-0.21-0.21-0.31-0.31c-4.98-4.98-13.45-4.99-18.43,0c-6.03,6.03-12.06,12.06-18.1,18.1
						c-14.49,14.49-28.97,28.97-43.46,43.46c-17.53,17.53-35.06,35.06-52.58,52.58c-15.15,15.15-30.31,30.31-45.46,45.46
						c-7.36,7.36-14.9,14.58-22.1,22.1c-0.1,0.11-0.21,0.21-0.31,0.31c-4.98,4.98-4.99,13.45,0,18.43c0.08,0.08,0.16,0.16,0.24,0.24
						c6.14-6.14,12.29-12.29,18.43-18.43c-6.03-6.03-12.06-12.06-18.1-18.1c-14.49-14.49-28.97-28.97-43.46-43.46
						c-17.53-17.53-35.06-35.06-52.58-52.58c-15.15-15.15-30.31-30.31-45.46-45.46c-7.36-7.36-14.58-14.9-22.1-22.1
						c-0.11-0.1-0.21-0.21-0.31-0.31c-4.83-4.83-13.67-5.19-18.43,0c-4.78,5.2-5.15,13.28,0,18.43c6.03,6.03,12.06,12.06,18.1,18.1
						c14.49,14.49,28.97,28.97,43.46,43.46c17.53,17.53,35.06,35.06,52.58,52.58c15.15,15.15,30.31,30.31,45.46,45.46
						c7.36,7.36,14.58,14.9,22.1,22.1c0.11,0.1,0.21,0.21,0.31,0.31c4.83,4.83,13.67,5.19,18.43,0c4.78-5.2,5.15-13.28,0-18.43
						c-0.08-0.08-0.16-0.16-0.24-0.24c0,6.14,0,12.29,0,18.43c6.03-6.03,12.06-12.06,18.1-18.1c14.49-14.49,28.97-28.97,43.46-43.46
						c17.53-17.53,35.06-35.06,52.58-52.58c15.15-15.15,30.31-30.31,45.46-45.46c7.35-7.35,14.99-14.51,22.1-22.1
						c0.1-0.11,0.21-0.21,0.31-0.31c-6.14,0-12.29,0-18.43,0c6.09,6.09,12.18,12.18,18.27,18.27
						c14.49,14.49,28.98,28.98,43.47,43.47c17.65,17.65,35.3,35.3,52.95,52.95c15.15,15.15,30.31,30.31,45.46,45.46
						c7.42,7.42,14.69,15.03,22.28,22.28c0.11,0.1,0.21,0.21,0.31,0.31c4.83,4.83,13.67,5.19,18.43,0
						C786.26,252.08,786.64,244,781.48,238.85L781.48,238.85z"/>
				</g>
			</g>
		</g>
		<g>
			<g>
				<path class="st1" d="M763.05,56.11c-6.09,6.09-12.18,12.18-18.27,18.27c-14.49,14.49-28.98,28.98-43.47,43.47
					c-17.65,17.65-35.3,35.3-52.95,52.95c-15.15,15.15-30.31,30.31-45.46,45.46c-7.41,7.41-15.14,14.61-22.28,22.28
					c-0.1,0.11-0.21,0.21-0.31,0.31c6.14,0,12.29,0,18.43,0c-6.03-6.03-12.06-12.06-18.1-18.1c-14.49-14.49-28.97-28.97-43.46-43.46
					c-17.53-17.53-35.06-35.06-52.58-52.58c-15.15-15.15-30.31-30.31-45.46-45.46c-7.35-7.35-14.51-15-22.1-22.1
					c-0.11-0.1-0.21-0.21-0.31-0.31c0,6.14,0,12.29,0,18.43c0.08-0.08,0.16-0.16,0.24-0.24c4.83-4.83,5.19-13.67,0-18.43
					c-5.2-4.78-13.28-5.15-18.43,0c-6.03,6.03-12.06,12.06-18.1,18.1c-14.49,14.49-28.97,28.97-43.46,43.46
					c-17.53,17.53-35.06,35.06-52.58,52.58c-15.15,15.15-30.31,30.31-45.46,45.46c-7.36,7.36-14.9,14.58-22.1,22.1
					c-0.1,0.11-0.21,0.21-0.31,0.31c-4.83,4.83-5.19,13.67,0,18.43c5.2,4.78,13.28,5.15,18.43,0c6.03-6.03,12.06-12.06,18.1-18.1
					c14.49-14.49,28.97-28.97,43.46-43.46c17.53-17.53,35.06-35.06,52.58-52.58c15.15-15.15,30.31-30.31,45.46-45.46
					c7.36-7.36,14.9-14.58,22.1-22.1c0.1-0.11,0.21-0.21,0.31-0.31c4.83-4.83,5.19-13.67,0-18.43c-5.2-4.78-13.28-5.15-18.43,0
					c-0.08,0.08-0.16,0.16-0.24,0.24c-4.98,4.98-4.99,13.45,0,18.43c6.03,6.03,12.06,12.06,18.1,18.1
					c14.49,14.49,28.97,28.97,43.46,43.46c17.53,17.53,35.06,35.06,52.58,52.58c15.15,15.15,30.31,30.31,45.46,45.46
					c7.36,7.36,14.58,14.9,22.1,22.1c0.11,0.1,0.21,0.21,0.31,0.31c4.98,4.98,13.45,4.99,18.43,0c6.09-6.09,12.18-12.18,18.27-18.27
					c14.49-14.49,28.98-28.98,43.47-43.47c17.65-17.65,35.3-35.3,52.95-52.95c15.15-15.15,30.31-30.31,45.46-45.46
					c7.42-7.42,15.03-14.69,22.28-22.28c0.1-0.11,0.21-0.21,0.31-0.31c4.83-4.83,5.19-13.67,0-18.43
					C776.28,51.34,768.2,50.96,763.05,56.11L763.05,56.11z"/>
			</g>
		</g>
		<g>
			<path class="st1" d="M90.02,44.82c21.37,0,40.25,4.82,56.62,14.46c16.38,9.64,29.21,22.88,38.5,39.72
				c9.29,16.84,13.94,36.06,13.94,57.67s-4.65,40.82-13.94,57.67c-9.29,16.84-22.13,30.02-38.5,39.55
				c-16.38,9.52-35.25,14.29-56.62,14.29l-36.95-0.05c-6.76-0.01-12.24,5.47-12.24,12.22v0c0,6.75,5.47,12.22,12.22,12.22h36.96
				c19.98,0,38.27-3.31,54.88-9.93c16.61-6.62,30.95-16.03,43.03-28.22c12.08-12.2,21.43-26.54,28.05-43.03
				c6.62-16.5,9.93-34.73,9.93-54.71c0-19.98-3.31-38.27-9.93-54.88c-6.62-16.61-15.97-31.01-28.05-43.21
				c-12.08-12.2-26.43-21.6-43.03-28.22c-16.61-6.62-34.9-9.93-54.88-9.93H53.07c-6.75,0-12.22,5.48-12.2,12.23v0
				c0.02,6.73,5.48,12.18,12.21,12.17L90.02,44.82z"/>
			<path class="st1" d="M764.26,292.34c-5.27,0-9.05-2.17-11.33-6.53c-2.29-4.35-2.52-8.59-0.69-12.71L853.22,33.37
				c2.52-6.18,6.87-9.27,13.05-9.27c5.95,0,10.19,3.09,12.71,9.27l101.32,240.09c2.06,4.35,1.77,8.59-0.86,12.71
				c-2.64,4.12-6.35,6.18-11.16,6.18c-2.75,0-5.21-0.69-7.38-2.06c-2.18-1.37-3.95-3.43-5.32-6.18l-94.45-229.1h10.65l-95.14,229.1
				c-1.15,2.75-2.81,4.81-4.98,6.18C769.47,291.66,767.01,292.34,764.26,292.34z"/>
			<polygon class="st1" points="786.93,228.46 797.24,205.45 936.69,205.45 946.99,228.46 			"/>
		</g>
	</g>
</g>
</svg>
